<mxfile host="app.diagrams.net" modified="2023-04-21T00:57:54.294Z" agent="Mozilla/5.0 (Windows NT 10.0; Win64; x64; rv:109.0) Gecko/20100101 Firefox/112.0" etag="Vj27_7tvWYGDfYsdafdl" version="21.2.1" type="github">
  <diagram name="Page-1" id="shwfQs90o0qgGnDRnAIs">
    <mxGraphModel dx="1050" dy="538" grid="1" gridSize="10" guides="1" tooltips="1" connect="1" arrows="1" fold="1" page="1" pageScale="1" pageWidth="1100" pageHeight="1700" math="0" shadow="0">
      <root>
        <mxCell id="0" />
        <mxCell id="1" parent="0" />
        <mxCell id="6_lWr3xNK84Tyih0ua0p-3" value="" style="verticalLabelPosition=bottom;verticalAlign=top;html=1;shape=mxgraph.basic.partConcEllipse;startAngle=0.9414514052305925;endAngle=0.9664034525638553;arcWidth=0.4;fillColor=#d5e8d4;gradientColor=#97d077;strokeColor=#82b366;" vertex="1" parent="1">
          <mxGeometry x="610" y="300" width="600" height="600" as="geometry" />
        </mxCell>
        <mxCell id="6_lWr3xNK84Tyih0ua0p-1" value="" style="verticalLabelPosition=bottom;verticalAlign=top;html=1;shape=mxgraph.basic.partConcEllipse;startAngle=0.9778621933491073;endAngle=0.0440537951850158;arcWidth=0.5;fillColor=#d5e8d4;gradientColor=#97d077;strokeColor=#82b366;" vertex="1" parent="1">
          <mxGeometry x="735" y="425" width="350" height="350" as="geometry" />
        </mxCell>
        <mxCell id="HFAiObqD8BVQZH5xXZjD-99" value="" style="verticalLabelPosition=bottom;verticalAlign=top;html=1;shape=mxgraph.basic.partConcEllipse;startAngle=0.46663478226009597;endAngle=0.48676766197020505;arcWidth=0.4;fillColor=#fff2cc;gradientColor=#ffd966;strokeColor=#d6b656;" parent="1" vertex="1">
          <mxGeometry y="290" width="600" height="600" as="geometry" />
        </mxCell>
        <mxCell id="HFAiObqD8BVQZH5xXZjD-97" value="" style="verticalLabelPosition=bottom;verticalAlign=top;html=1;shape=mxgraph.basic.partConcEllipse;startAngle=0.4446318428835013;endAngle=0.4614133578570699;arcWidth=0.4;fillColor=#fff2cc;gradientColor=#ffd966;strokeColor=#d6b656;" parent="1" vertex="1">
          <mxGeometry y="290" width="600" height="600" as="geometry" />
        </mxCell>
        <mxCell id="HFAiObqD8BVQZH5xXZjD-19" value="ATLAS" style="ellipse;whiteSpace=wrap;html=1;aspect=fixed;fillColor=#a20025;fontColor=#ffffff;strokeColor=#6F0000;" parent="1" vertex="1">
          <mxGeometry x="260" y="550" width="80" height="80" as="geometry" />
        </mxCell>
        <mxCell id="HFAiObqD8BVQZH5xXZjD-20" value="" style="verticalLabelPosition=bottom;verticalAlign=top;html=1;shape=mxgraph.basic.partConcEllipse;startAngle=0.25;endAngle=0.3835946057192143;arcWidth=0.5;fillColor=#f5f5f5;gradientColor=#b3b3b3;strokeColor=#666666;" parent="1" vertex="1">
          <mxGeometry x="215" y="505" width="170" height="170" as="geometry" />
        </mxCell>
        <mxCell id="HFAiObqD8BVQZH5xXZjD-25" value="" style="verticalLabelPosition=bottom;verticalAlign=top;html=1;shape=mxgraph.basic.partConcEllipse;startAngle=0.39758361765043326;endAngle=0.6257997668515475;arcWidth=0.5;fillColor=#fff2cc;gradientColor=#ffd966;strokeColor=#d6b656;" parent="1" vertex="1">
          <mxGeometry x="215" y="505" width="170" height="170" as="geometry" />
        </mxCell>
        <mxCell id="HFAiObqD8BVQZH5xXZjD-26" value="" style="verticalLabelPosition=bottom;verticalAlign=top;html=1;shape=mxgraph.basic.partConcEllipse;startAngle=0.059182732271746585;endAngle=0.23488796658054026;arcWidth=0.5;fillColor=#f8cecc;gradientColor=#ea6b66;strokeColor=#b85450;" parent="1" vertex="1">
          <mxGeometry x="215" y="505" width="170" height="170" as="geometry" />
        </mxCell>
        <mxCell id="HFAiObqD8BVQZH5xXZjD-27" value="" style="verticalLabelPosition=bottom;verticalAlign=top;html=1;shape=mxgraph.basic.partConcEllipse;startAngle=0.789463239216001;endAngle=0.046386789538871175;arcWidth=0.5;fillColor=#d5e8d4;gradientColor=#97d077;strokeColor=#82b366;" parent="1" vertex="1">
          <mxGeometry x="215" y="505" width="170" height="170" as="geometry" />
        </mxCell>
        <mxCell id="HFAiObqD8BVQZH5xXZjD-28" value="" style="verticalLabelPosition=bottom;verticalAlign=top;html=1;shape=mxgraph.basic.partConcEllipse;startAngle=0.6399703104443706;endAngle=0.7804784451050323;arcWidth=0.5;fillColor=#dae8fc;gradientColor=#7ea6e0;strokeColor=#6c8ebf;" parent="1" vertex="1">
          <mxGeometry x="215" y="505" width="170" height="170" as="geometry" />
        </mxCell>
        <mxCell id="HFAiObqD8BVQZH5xXZjD-29" value="Void" style="text;html=1;strokeColor=none;fillColor=none;align=center;verticalAlign=middle;whiteSpace=wrap;rounded=0;" parent="1" vertex="1">
          <mxGeometry x="325" y="600" width="60" height="30" as="geometry" />
        </mxCell>
        <mxCell id="HFAiObqD8BVQZH5xXZjD-30" value="Agents" style="text;html=1;strokeColor=none;fillColor=none;align=center;verticalAlign=middle;whiteSpace=wrap;rounded=0;" parent="1" vertex="1">
          <mxGeometry x="315" y="530" width="60" height="30" as="geometry" />
        </mxCell>
        <mxCell id="HFAiObqD8BVQZH5xXZjD-31" value="Geographic Features" style="text;html=1;strokeColor=none;fillColor=none;align=center;verticalAlign=middle;whiteSpace=wrap;rounded=0;" parent="1" vertex="1">
          <mxGeometry x="255" y="520" width="60" height="30" as="geometry" />
        </mxCell>
        <mxCell id="HFAiObqD8BVQZH5xXZjD-33" value="Properties" style="text;html=1;strokeColor=none;fillColor=none;align=center;verticalAlign=middle;whiteSpace=wrap;rounded=0;" parent="1" vertex="1">
          <mxGeometry x="265" y="640" width="60" height="30" as="geometry" />
        </mxCell>
        <mxCell id="HFAiObqD8BVQZH5xXZjD-34" value="" style="verticalLabelPosition=bottom;verticalAlign=top;html=1;shape=mxgraph.basic.partConcEllipse;startAngle=0.5625923613305674;endAngle=0.628616535201608;arcWidth=0.5;fillColor=#fff2cc;gradientColor=#ffd966;strokeColor=#d6b656;" parent="1" vertex="1">
          <mxGeometry x="125" y="415" width="350" height="350" as="geometry" />
        </mxCell>
        <mxCell id="HFAiObqD8BVQZH5xXZjD-36" value="" style="verticalLabelPosition=bottom;verticalAlign=top;html=1;shape=mxgraph.basic.partConcEllipse;startAngle=0.19346325236647546;endAngle=0.23488796658054026;arcWidth=0.5;fillColor=#F8948D;gradientColor=#ea6b66;strokeColor=#b85450;" parent="1" vertex="1">
          <mxGeometry x="125" y="415" width="350" height="350" as="geometry" />
        </mxCell>
        <mxCell id="HFAiObqD8BVQZH5xXZjD-37" value="" style="verticalLabelPosition=bottom;verticalAlign=top;html=1;shape=mxgraph.basic.partConcEllipse;startAngle=0.13104095587391681;endAngle=0.1874076386694326;arcWidth=0.5;fillColor=#f8cecc;gradientColor=#ea6b66;strokeColor=#b85450;" parent="1" vertex="1">
          <mxGeometry x="125" y="415" width="350" height="350" as="geometry" />
        </mxCell>
        <mxCell id="HFAiObqD8BVQZH5xXZjD-38" value="" style="verticalLabelPosition=bottom;verticalAlign=top;html=1;shape=mxgraph.basic.partConcEllipse;startAngle=0.05965775272094551;endAngle=0.12611295348831153;arcWidth=0.5;fillColor=#f8cecc;gradientColor=#ea6b66;strokeColor=#b85450;" parent="1" vertex="1">
          <mxGeometry x="125" y="415" width="350" height="350" as="geometry" />
        </mxCell>
        <mxCell id="HFAiObqD8BVQZH5xXZjD-39" value="" style="verticalLabelPosition=bottom;verticalAlign=top;html=1;shape=mxgraph.basic.partConcEllipse;startAngle=0.9825630597511179;endAngle=0.0436351050805993;arcWidth=0.5;fillColor=#d5e8d4;gradientColor=#97d077;strokeColor=#82b366;" parent="1" vertex="1">
          <mxGeometry x="125" y="415" width="350" height="350" as="geometry" />
        </mxCell>
        <mxCell id="HFAiObqD8BVQZH5xXZjD-40" value="" style="verticalLabelPosition=bottom;verticalAlign=top;html=1;shape=mxgraph.basic.partConcEllipse;startAngle=0.9110961577553236;endAngle=0.9722000561071074;arcWidth=0.5;fillColor=#d5e8d4;gradientColor=#97d077;strokeColor=#82b366;" parent="1" vertex="1">
          <mxGeometry x="125" y="415" width="350" height="350" as="geometry" />
        </mxCell>
        <mxCell id="HFAiObqD8BVQZH5xXZjD-41" value="" style="verticalLabelPosition=bottom;verticalAlign=top;html=1;shape=mxgraph.basic.partConcEllipse;startAngle=0.7919210352183191;endAngle=0.9003273965383216;arcWidth=0.5;fillColor=#d5e8d4;gradientColor=#97d077;strokeColor=#82b366;" parent="1" vertex="1">
          <mxGeometry x="125" y="415" width="350" height="350" as="geometry" />
        </mxCell>
        <mxCell id="HFAiObqD8BVQZH5xXZjD-42" value="" style="verticalLabelPosition=bottom;verticalAlign=top;html=1;shape=mxgraph.basic.partConcEllipse;startAngle=0.7404621378820819;endAngle=0.7829438308915222;arcWidth=0.5;fillColor=#dae8fc;gradientColor=#7ea6e0;strokeColor=#6c8ebf;" parent="1" vertex="1">
          <mxGeometry x="125" y="415" width="350" height="350" as="geometry" />
        </mxCell>
        <mxCell id="HFAiObqD8BVQZH5xXZjD-43" value="" style="verticalLabelPosition=bottom;verticalAlign=top;html=1;shape=mxgraph.basic.partConcEllipse;startAngle=0.6964165382800314;endAngle=0.735714542894766;arcWidth=0.5;fillColor=#dae8fc;gradientColor=#7ea6e0;strokeColor=#6c8ebf;" parent="1" vertex="1">
          <mxGeometry x="125" y="415" width="350" height="350" as="geometry" />
        </mxCell>
        <mxCell id="HFAiObqD8BVQZH5xXZjD-44" value="" style="verticalLabelPosition=bottom;verticalAlign=top;html=1;shape=mxgraph.basic.partConcEllipse;startAngle=0.6445715809024097;endAngle=0.6894405292045782;arcWidth=0.5;fillColor=#dae8fc;gradientColor=#7ea6e0;strokeColor=#6c8ebf;" parent="1" vertex="1">
          <mxGeometry x="125" y="415" width="350" height="350" as="geometry" />
        </mxCell>
        <mxCell id="HFAiObqD8BVQZH5xXZjD-32" value="Atmosphere" style="text;html=1;strokeColor=none;fillColor=none;align=center;verticalAlign=middle;whiteSpace=wrap;rounded=0;" parent="1" vertex="1">
          <mxGeometry x="200" y="590" width="60" height="30" as="geometry" />
        </mxCell>
        <mxCell id="HFAiObqD8BVQZH5xXZjD-45" value="Infrastructure" style="text;html=1;strokeColor=none;fillColor=none;align=center;verticalAlign=middle;whiteSpace=wrap;rounded=0;" parent="1" vertex="1">
          <mxGeometry x="155" y="505" width="60" height="30" as="geometry" />
        </mxCell>
        <mxCell id="HFAiObqD8BVQZH5xXZjD-47" value="Ground Cover" style="text;html=1;strokeColor=none;fillColor=none;align=center;verticalAlign=middle;whiteSpace=wrap;rounded=0;" parent="1" vertex="1">
          <mxGeometry x="220" y="450" width="60" height="30" as="geometry" />
        </mxCell>
        <mxCell id="HFAiObqD8BVQZH5xXZjD-48" value="Water Body" style="text;html=1;strokeColor=none;fillColor=none;align=center;verticalAlign=middle;whiteSpace=wrap;rounded=0;" parent="1" vertex="1">
          <mxGeometry x="280" y="430" width="60" height="30" as="geometry" />
        </mxCell>
        <mxCell id="HFAiObqD8BVQZH5xXZjD-49" value="Sky" style="text;html=1;strokeColor=none;fillColor=none;align=center;verticalAlign=middle;whiteSpace=wrap;rounded=0;" parent="1" vertex="1">
          <mxGeometry x="125" y="610" width="60" height="30" as="geometry" />
        </mxCell>
        <mxCell id="HFAiObqD8BVQZH5xXZjD-50" value="Clouds" style="text;html=1;strokeColor=none;fillColor=none;align=center;verticalAlign=middle;whiteSpace=wrap;rounded=0;" parent="1" vertex="1">
          <mxGeometry x="135" y="560" width="60" height="30" as="geometry" />
        </mxCell>
        <mxCell id="HFAiObqD8BVQZH5xXZjD-51" value="Celestial Bodies" style="text;html=1;strokeColor=none;fillColor=none;align=center;verticalAlign=middle;whiteSpace=wrap;rounded=0;" parent="1" vertex="1">
          <mxGeometry x="155" y="640" width="60" height="30" as="geometry" />
        </mxCell>
        <mxCell id="HFAiObqD8BVQZH5xXZjD-52" value="Human" style="text;html=1;strokeColor=none;fillColor=none;align=center;verticalAlign=middle;whiteSpace=wrap;rounded=0;" parent="1" vertex="1">
          <mxGeometry x="345" y="460" width="60" height="30" as="geometry" />
        </mxCell>
        <mxCell id="HFAiObqD8BVQZH5xXZjD-53" value="Animal" style="text;html=1;strokeColor=none;fillColor=none;align=center;verticalAlign=middle;whiteSpace=wrap;rounded=0;" parent="1" vertex="1">
          <mxGeometry x="395" y="550" width="60" height="30" as="geometry" />
        </mxCell>
        <mxCell id="HFAiObqD8BVQZH5xXZjD-54" value="Vehicle" style="text;html=1;strokeColor=none;fillColor=none;align=center;verticalAlign=middle;whiteSpace=wrap;rounded=0;" parent="1" vertex="1">
          <mxGeometry x="385" y="500" width="60" height="30" as="geometry" />
        </mxCell>
        <mxCell id="HFAiObqD8BVQZH5xXZjD-55" value="" style="verticalLabelPosition=bottom;verticalAlign=top;html=1;shape=mxgraph.basic.partConcEllipse;startAngle=0.4950792507221276;endAngle=0.5537342479781142;arcWidth=0.5;fillColor=#fff2cc;gradientColor=#ffd966;strokeColor=#d6b656;" parent="1" vertex="1">
          <mxGeometry x="125" y="415" width="350" height="350" as="geometry" />
        </mxCell>
        <mxCell id="HFAiObqD8BVQZH5xXZjD-56" value="" style="verticalLabelPosition=bottom;verticalAlign=top;html=1;shape=mxgraph.basic.partConcEllipse;startAngle=0.39693268081748273;endAngle=0.48703650452378056;arcWidth=0.5;fillColor=#fff2cc;gradientColor=#ffd966;strokeColor=#d6b656;" parent="1" vertex="1">
          <mxGeometry x="125" y="415" width="350" height="350" as="geometry" />
        </mxCell>
        <mxCell id="HFAiObqD8BVQZH5xXZjD-57" value="Material" style="text;html=1;strokeColor=none;fillColor=none;align=center;verticalAlign=middle;whiteSpace=wrap;rounded=0;" parent="1" vertex="1">
          <mxGeometry x="315" y="710" width="60" height="30" as="geometry" />
        </mxCell>
        <mxCell id="HFAiObqD8BVQZH5xXZjD-58" value="Shape" style="text;html=1;strokeColor=none;fillColor=none;align=center;verticalAlign=middle;whiteSpace=wrap;rounded=0;" parent="1" vertex="1">
          <mxGeometry x="245" y="720" width="60" height="30" as="geometry" />
        </mxCell>
        <mxCell id="HFAiObqD8BVQZH5xXZjD-59" value="Topological Contours" style="text;html=1;strokeColor=none;fillColor=none;align=center;verticalAlign=middle;whiteSpace=wrap;rounded=0;" parent="1" vertex="1">
          <mxGeometry x="195" y="690" width="60" height="30" as="geometry" />
        </mxCell>
        <mxCell id="HFAiObqD8BVQZH5xXZjD-61" value="" style="verticalLabelPosition=bottom;verticalAlign=top;html=1;shape=mxgraph.basic.partConcEllipse;startAngle=0.16757477191089495;endAngle=0.184920297753485;arcWidth=0.4;fillColor=#f8cecc;gradientColor=#ea6b66;strokeColor=#b85450;" parent="1" vertex="1">
          <mxGeometry y="290" width="600" height="600" as="geometry" />
        </mxCell>
        <mxCell id="HFAiObqD8BVQZH5xXZjD-62" value="" style="verticalLabelPosition=bottom;verticalAlign=top;html=1;shape=mxgraph.basic.partConcEllipse;startAngle=0.13201699142116544;endAngle=0.14858039966806866;arcWidth=0.4;fillColor=#f8cecc;gradientColor=#ea6b66;strokeColor=#b85450;" parent="1" vertex="1">
          <mxGeometry y="290" width="600" height="600" as="geometry" />
        </mxCell>
        <mxCell id="HFAiObqD8BVQZH5xXZjD-63" value="" style="verticalLabelPosition=bottom;verticalAlign=top;html=1;shape=mxgraph.basic.partConcEllipse;startAngle=0.1505245446593299;endAngle=0.16537348633483367;arcWidth=0.4;fillColor=#f8cecc;gradientColor=#ea6b66;strokeColor=#b85450;" parent="1" vertex="1">
          <mxGeometry y="290" width="600" height="600" as="geometry" />
        </mxCell>
        <mxCell id="HFAiObqD8BVQZH5xXZjD-64" value="" style="verticalLabelPosition=bottom;verticalAlign=top;html=1;shape=mxgraph.basic.partConcEllipse;startAngle=0.564240334413191;endAngle=0.5843864611426899;arcWidth=0.4;fillColor=#fff2cc;gradientColor=#ffd966;strokeColor=#d6b656;" parent="1" vertex="1">
          <mxGeometry y="290" width="600" height="600" as="geometry" />
        </mxCell>
        <mxCell id="HFAiObqD8BVQZH5xXZjD-65" value="" style="verticalLabelPosition=bottom;verticalAlign=top;html=1;shape=mxgraph.basic.partConcEllipse;startAngle=0.5895832615671768;endAngle=0.6068894395787305;arcWidth=0.4;fillColor=#fff2cc;gradientColor=#ffd966;strokeColor=#d6b656;" parent="1" vertex="1">
          <mxGeometry y="290" width="600" height="600" as="geometry" />
        </mxCell>
        <mxCell id="HFAiObqD8BVQZH5xXZjD-66" value="GV" style="text;html=1;strokeColor=none;fillColor=none;align=center;verticalAlign=middle;whiteSpace=wrap;rounded=0;" parent="1" vertex="1">
          <mxGeometry x="455" y="420" width="60" height="30" as="geometry" />
        </mxCell>
        <mxCell id="HFAiObqD8BVQZH5xXZjD-67" value="AV" style="text;html=1;strokeColor=none;fillColor=none;align=center;verticalAlign=middle;whiteSpace=wrap;rounded=0;" parent="1" vertex="1">
          <mxGeometry x="465" y="450" width="60" height="30" as="geometry" />
        </mxCell>
        <mxCell id="HFAiObqD8BVQZH5xXZjD-68" value="WV" style="text;html=1;strokeColor=none;fillColor=none;align=center;verticalAlign=middle;whiteSpace=wrap;rounded=0;" parent="1" vertex="1">
          <mxGeometry x="495" y="470" width="60" height="30" as="geometry" />
        </mxCell>
        <mxCell id="HFAiObqD8BVQZH5xXZjD-69" value="" style="verticalLabelPosition=bottom;verticalAlign=top;html=1;shape=mxgraph.basic.partConcEllipse;startAngle=0.6113914098505895;endAngle=0.6285361945001575;arcWidth=0.4;fillColor=#fff2cc;gradientColor=#ffd966;strokeColor=#d6b656;" parent="1" vertex="1">
          <mxGeometry y="290" width="600" height="600" as="geometry" />
        </mxCell>
        <mxCell id="HFAiObqD8BVQZH5xXZjD-70" value="Rising" style="text;html=1;strokeColor=none;fillColor=none;align=center;verticalAlign=middle;whiteSpace=wrap;rounded=0;" parent="1" vertex="1">
          <mxGeometry x="95" y="760" width="60" height="30" as="geometry" />
        </mxCell>
        <mxCell id="HFAiObqD8BVQZH5xXZjD-71" value="Flat" style="text;html=1;strokeColor=none;fillColor=none;align=center;verticalAlign=middle;whiteSpace=wrap;rounded=0;" parent="1" vertex="1">
          <mxGeometry x="115" y="790" width="60" height="30" as="geometry" />
        </mxCell>
        <mxCell id="HFAiObqD8BVQZH5xXZjD-72" value="Falling" style="text;html=1;strokeColor=none;fillColor=none;align=center;verticalAlign=middle;whiteSpace=wrap;rounded=0;" parent="1" vertex="1">
          <mxGeometry x="155" y="810" width="60" height="30" as="geometry" />
        </mxCell>
        <mxCell id="HFAiObqD8BVQZH5xXZjD-74" value="" style="verticalLabelPosition=bottom;verticalAlign=top;html=1;shape=mxgraph.basic.partConcEllipse;startAngle=0.7933872003853077;endAngle=0.814646955733561;arcWidth=0.4;fillColor=#d5e8d4;gradientColor=#97d077;strokeColor=#82b366;" parent="1" vertex="1">
          <mxGeometry y="290" width="600" height="600" as="geometry" />
        </mxCell>
        <mxCell id="HFAiObqD8BVQZH5xXZjD-75" value="Directional" style="text;html=1;strokeColor=none;fillColor=none;align=center;verticalAlign=middle;whiteSpace=wrap;rounded=0;" parent="1" vertex="1">
          <mxGeometry x="25" y="490" width="60" height="30" as="geometry" />
        </mxCell>
        <mxCell id="HFAiObqD8BVQZH5xXZjD-77" value="Not Included" style="swimlane;fontStyle=0;childLayout=stackLayout;horizontal=1;startSize=30;horizontalStack=0;resizeParent=1;resizeParentMax=0;resizeLast=0;collapsible=1;marginBottom=0;whiteSpace=wrap;html=1;" parent="1" vertex="1">
          <mxGeometry x="30" y="50" width="140" height="190" as="geometry" />
        </mxCell>
        <mxCell id="HFAiObqD8BVQZH5xXZjD-79" value="Optical Phenomena&lt;br&gt;Natural Disaster&lt;br&gt;(most likely will not be in off-road datasets initially)&amp;nbsp;" style="text;strokeColor=none;fillColor=none;align=left;verticalAlign=middle;spacingLeft=4;spacingRight=4;overflow=hidden;points=[[0,0.5],[1,0.5]];portConstraint=eastwest;rotatable=0;whiteSpace=wrap;html=1;" parent="HFAiObqD8BVQZH5xXZjD-77" vertex="1">
          <mxGeometry y="30" width="140" height="160" as="geometry" />
        </mxCell>
        <mxCell id="HFAiObqD8BVQZH5xXZjD-81" value="" style="verticalLabelPosition=bottom;verticalAlign=top;html=1;shape=mxgraph.basic.partConcEllipse;startAngle=0.8167229077701802;endAngle=0.8335951152123473;arcWidth=0.4;fillColor=#d5e8d4;gradientColor=#97d077;strokeColor=#82b366;" parent="1" vertex="1">
          <mxGeometry y="290" width="600" height="600" as="geometry" />
        </mxCell>
        <mxCell id="HFAiObqD8BVQZH5xXZjD-82" value="Barrier" style="text;html=1;strokeColor=none;fillColor=none;align=center;verticalAlign=middle;whiteSpace=wrap;rounded=0;" parent="1" vertex="1">
          <mxGeometry x="35" y="460" width="60" height="30" as="geometry" />
        </mxCell>
        <mxCell id="HFAiObqD8BVQZH5xXZjD-83" value="" style="verticalLabelPosition=bottom;verticalAlign=top;html=1;shape=mxgraph.basic.partConcEllipse;startAngle=0.83655362363429;endAngle=0.8539766749400294;arcWidth=0.4;fillColor=#d5e8d4;gradientColor=#97d077;strokeColor=#82b366;" parent="1" vertex="1">
          <mxGeometry y="290" width="600" height="600" as="geometry" />
        </mxCell>
        <mxCell id="HFAiObqD8BVQZH5xXZjD-84" value="Building" style="text;html=1;strokeColor=none;fillColor=none;align=center;verticalAlign=middle;whiteSpace=wrap;rounded=0;" parent="1" vertex="1">
          <mxGeometry x="55" y="430" width="60" height="30" as="geometry" />
        </mxCell>
        <mxCell id="HFAiObqD8BVQZH5xXZjD-85" value="" style="verticalLabelPosition=bottom;verticalAlign=top;html=1;shape=mxgraph.basic.partConcEllipse;startAngle=0.878758866538277;endAngle=0.8986352869896397;arcWidth=0.4;fillColor=#d5e8d4;gradientColor=#97d077;strokeColor=#82b366;" parent="1" vertex="1">
          <mxGeometry y="290" width="600" height="600" as="geometry" />
        </mxCell>
        <mxCell id="HFAiObqD8BVQZH5xXZjD-86" value="" style="verticalLabelPosition=bottom;verticalAlign=top;html=1;shape=mxgraph.basic.partConcEllipse;startAngle=0.8583662545117346;endAngle=0.8761449798372287;arcWidth=0.4;fillColor=#d5e8d4;gradientColor=#97d077;strokeColor=#82b366;" parent="1" vertex="1">
          <mxGeometry y="290" width="600" height="600" as="geometry" />
        </mxCell>
        <mxCell id="HFAiObqD8BVQZH5xXZjD-87" value="Tunnel" style="text;html=1;strokeColor=none;fillColor=none;align=center;verticalAlign=middle;whiteSpace=wrap;rounded=0;" parent="1" vertex="1">
          <mxGeometry x="75" y="400" width="60" height="30" as="geometry" />
        </mxCell>
        <mxCell id="HFAiObqD8BVQZH5xXZjD-88" value="Bridge" style="text;html=1;strokeColor=none;fillColor=none;align=center;verticalAlign=middle;whiteSpace=wrap;rounded=0;" parent="1" vertex="1">
          <mxGeometry x="105" y="385" width="60" height="30" as="geometry" />
        </mxCell>
        <mxCell id="HFAiObqD8BVQZH5xXZjD-91" value="" style="verticalLabelPosition=bottom;verticalAlign=top;html=1;shape=mxgraph.basic.partConcEllipse;startAngle=0.3960233250599707;endAngle=0.4109239122131654;arcWidth=0.4;fillColor=#fff2cc;gradientColor=#ffd966;strokeColor=#d6b656;" parent="1" vertex="1">
          <mxGeometry y="290" width="600" height="600" as="geometry" />
        </mxCell>
        <mxCell id="HFAiObqD8BVQZH5xXZjD-92" value="" style="verticalLabelPosition=bottom;verticalAlign=top;html=1;shape=mxgraph.basic.partConcEllipse;startAngle=0.4137078753180593;endAngle=0.4269416189005031;arcWidth=0.4;fillColor=#fff2cc;gradientColor=#ffd966;strokeColor=#d6b656;" parent="1" vertex="1">
          <mxGeometry y="290" width="600" height="600" as="geometry" />
        </mxCell>
        <mxCell id="HFAiObqD8BVQZH5xXZjD-93" value="" style="verticalLabelPosition=bottom;verticalAlign=top;html=1;shape=mxgraph.basic.partConcEllipse;startAngle=0.4291281377012938;endAngle=0.4415624693738283;arcWidth=0.4;fillColor=#fff2cc;gradientColor=#ffd966;strokeColor=#d6b656;" parent="1" vertex="1">
          <mxGeometry y="290" width="600" height="600" as="geometry" />
        </mxCell>
        <mxCell id="HFAiObqD8BVQZH5xXZjD-94" value="Vegetation" style="text;html=1;strokeColor=none;fillColor=none;align=center;verticalAlign=middle;whiteSpace=wrap;rounded=0;" parent="1" vertex="1">
          <mxGeometry x="435" y="800" width="60" height="30" as="geometry" />
        </mxCell>
        <mxCell id="HFAiObqD8BVQZH5xXZjD-95" value="Soil" style="text;html=1;strokeColor=none;fillColor=none;align=center;verticalAlign=middle;whiteSpace=wrap;rounded=0;" parent="1" vertex="1">
          <mxGeometry x="405" y="820" width="60" height="30" as="geometry" />
        </mxCell>
        <mxCell id="HFAiObqD8BVQZH5xXZjD-96" value="Mineral" style="text;html=1;strokeColor=none;fillColor=none;align=center;verticalAlign=middle;whiteSpace=wrap;rounded=0;" parent="1" vertex="1">
          <mxGeometry x="375" y="810" width="60" height="30" as="geometry" />
        </mxCell>
        <mxCell id="HFAiObqD8BVQZH5xXZjD-98" value="Man-Made" style="text;html=1;strokeColor=none;fillColor=none;align=center;verticalAlign=middle;whiteSpace=wrap;rounded=0;" parent="1" vertex="1">
          <mxGeometry x="305" y="820" width="60" height="30" as="geometry" />
        </mxCell>
        <mxCell id="HFAiObqD8BVQZH5xXZjD-100" value="Liquid" style="text;html=1;strokeColor=none;fillColor=none;align=center;verticalAlign=middle;whiteSpace=wrap;rounded=0;" parent="1" vertex="1">
          <mxGeometry x="345" y="840" width="60" height="30" as="geometry" />
        </mxCell>
        <mxCell id="HFAiObqD8BVQZH5xXZjD-102" value="" style="verticalLabelPosition=bottom;verticalAlign=top;html=1;shape=mxgraph.basic.partConcEllipse;startAngle=0.46663478226009597;endAngle=0.48676766197020505;arcWidth=0.4;fillColor=#fff2cc;gradientColor=#ffd966;strokeColor=#d6b656;" parent="1" vertex="1">
          <mxGeometry x="610" y="300" width="600" height="600" as="geometry" />
        </mxCell>
        <mxCell id="HFAiObqD8BVQZH5xXZjD-103" value="" style="verticalLabelPosition=bottom;verticalAlign=top;html=1;shape=mxgraph.basic.partConcEllipse;startAngle=0.4446318428835013;endAngle=0.4614133578570699;arcWidth=0.4;fillColor=#fff2cc;gradientColor=#ffd966;strokeColor=#d6b656;" parent="1" vertex="1">
          <mxGeometry x="610" y="300" width="600" height="600" as="geometry" />
        </mxCell>
        <mxCell id="HFAiObqD8BVQZH5xXZjD-104" value="ATLAS" style="ellipse;whiteSpace=wrap;html=1;aspect=fixed;fillColor=#a20025;fontColor=#ffffff;strokeColor=#6F0000;" parent="1" vertex="1">
          <mxGeometry x="870" y="560" width="80" height="80" as="geometry" />
        </mxCell>
        <mxCell id="HFAiObqD8BVQZH5xXZjD-105" value="" style="verticalLabelPosition=bottom;verticalAlign=top;html=1;shape=mxgraph.basic.partConcEllipse;startAngle=0.25;endAngle=0.3835946057192143;arcWidth=0.5;fillColor=#f5f5f5;gradientColor=#b3b3b3;strokeColor=#666666;" parent="1" vertex="1">
          <mxGeometry x="825" y="515" width="170" height="170" as="geometry" />
        </mxCell>
        <mxCell id="HFAiObqD8BVQZH5xXZjD-106" value="" style="verticalLabelPosition=bottom;verticalAlign=top;html=1;shape=mxgraph.basic.partConcEllipse;startAngle=0.39758361765043326;endAngle=0.6257997668515475;arcWidth=0.5;fillColor=#fff2cc;gradientColor=#ffd966;strokeColor=#d6b656;" parent="1" vertex="1">
          <mxGeometry x="825" y="515" width="170" height="170" as="geometry" />
        </mxCell>
        <mxCell id="HFAiObqD8BVQZH5xXZjD-107" value="" style="verticalLabelPosition=bottom;verticalAlign=top;html=1;shape=mxgraph.basic.partConcEllipse;startAngle=0.059182732271746585;endAngle=0.23488796658054026;arcWidth=0.5;fillColor=#f8cecc;gradientColor=#ea6b66;strokeColor=#b85450;" parent="1" vertex="1">
          <mxGeometry x="825" y="515" width="170" height="170" as="geometry" />
        </mxCell>
        <mxCell id="HFAiObqD8BVQZH5xXZjD-108" value="" style="verticalLabelPosition=bottom;verticalAlign=top;html=1;shape=mxgraph.basic.partConcEllipse;startAngle=0.789463239216001;endAngle=0.046386789538871175;arcWidth=0.5;fillColor=#d5e8d4;gradientColor=#97d077;strokeColor=#82b366;" parent="1" vertex="1">
          <mxGeometry x="825" y="515" width="170" height="170" as="geometry" />
        </mxCell>
        <mxCell id="HFAiObqD8BVQZH5xXZjD-109" value="" style="verticalLabelPosition=bottom;verticalAlign=top;html=1;shape=mxgraph.basic.partConcEllipse;startAngle=0.6399703104443706;endAngle=0.7804784451050323;arcWidth=0.5;fillColor=#dae8fc;gradientColor=#7ea6e0;strokeColor=#6c8ebf;" parent="1" vertex="1">
          <mxGeometry x="825" y="515" width="170" height="170" as="geometry" />
        </mxCell>
        <mxCell id="HFAiObqD8BVQZH5xXZjD-110" value="Void" style="text;html=1;strokeColor=none;fillColor=none;align=center;verticalAlign=middle;whiteSpace=wrap;rounded=0;" parent="1" vertex="1">
          <mxGeometry x="935" y="610" width="60" height="30" as="geometry" />
        </mxCell>
        <mxCell id="HFAiObqD8BVQZH5xXZjD-111" value="Agents" style="text;html=1;strokeColor=none;fillColor=none;align=center;verticalAlign=middle;whiteSpace=wrap;rounded=0;" parent="1" vertex="1">
          <mxGeometry x="925" y="540" width="60" height="30" as="geometry" />
        </mxCell>
        <mxCell id="HFAiObqD8BVQZH5xXZjD-112" value="Geographic Features" style="text;html=1;strokeColor=none;fillColor=none;align=center;verticalAlign=middle;whiteSpace=wrap;rounded=0;" parent="1" vertex="1">
          <mxGeometry x="865" y="530" width="60" height="30" as="geometry" />
        </mxCell>
        <mxCell id="HFAiObqD8BVQZH5xXZjD-113" value="Properties" style="text;html=1;strokeColor=none;fillColor=none;align=center;verticalAlign=middle;whiteSpace=wrap;rounded=0;" parent="1" vertex="1">
          <mxGeometry x="875" y="650" width="60" height="30" as="geometry" />
        </mxCell>
        <mxCell id="HFAiObqD8BVQZH5xXZjD-114" value="" style="verticalLabelPosition=bottom;verticalAlign=top;html=1;shape=mxgraph.basic.partConcEllipse;startAngle=0.5625923613305674;endAngle=0.628616535201608;arcWidth=0.5;fillColor=#fff2cc;gradientColor=#ffd966;strokeColor=#d6b656;" parent="1" vertex="1">
          <mxGeometry x="735" y="425" width="350" height="350" as="geometry" />
        </mxCell>
        <mxCell id="HFAiObqD8BVQZH5xXZjD-115" value="" style="verticalLabelPosition=bottom;verticalAlign=top;html=1;shape=mxgraph.basic.partConcEllipse;startAngle=0.19346325236647546;endAngle=0.23488796658054026;arcWidth=0.5;fillColor=#F8948D;gradientColor=#ea6b66;strokeColor=#b85450;" parent="1" vertex="1">
          <mxGeometry x="735" y="425" width="350" height="350" as="geometry" />
        </mxCell>
        <mxCell id="HFAiObqD8BVQZH5xXZjD-116" value="" style="verticalLabelPosition=bottom;verticalAlign=top;html=1;shape=mxgraph.basic.partConcEllipse;startAngle=0.13104095587391681;endAngle=0.1874076386694326;arcWidth=0.5;fillColor=#f8cecc;gradientColor=#ea6b66;strokeColor=#b85450;" parent="1" vertex="1">
          <mxGeometry x="735" y="425" width="350" height="350" as="geometry" />
        </mxCell>
        <mxCell id="HFAiObqD8BVQZH5xXZjD-117" value="" style="verticalLabelPosition=bottom;verticalAlign=top;html=1;shape=mxgraph.basic.partConcEllipse;startAngle=0.05965775272094551;endAngle=0.12611295348831153;arcWidth=0.5;fillColor=#f8cecc;gradientColor=#ea6b66;strokeColor=#b85450;" parent="1" vertex="1">
          <mxGeometry x="735" y="425" width="350" height="350" as="geometry" />
        </mxCell>
        <mxCell id="HFAiObqD8BVQZH5xXZjD-119" value="" style="verticalLabelPosition=bottom;verticalAlign=top;html=1;shape=mxgraph.basic.partConcEllipse;startAngle=0.9110961577553236;endAngle=0.9685835209054994;arcWidth=0.5;fillColor=#d5e8d4;gradientColor=#97d077;strokeColor=#82b366;" parent="1" vertex="1">
          <mxGeometry x="735" y="425" width="350" height="350" as="geometry" />
        </mxCell>
        <mxCell id="HFAiObqD8BVQZH5xXZjD-120" value="" style="verticalLabelPosition=bottom;verticalAlign=top;html=1;shape=mxgraph.basic.partConcEllipse;startAngle=0.7919210352183191;endAngle=0.9003273965383216;arcWidth=0.5;fillColor=#d5e8d4;gradientColor=#97d077;strokeColor=#82b366;" parent="1" vertex="1">
          <mxGeometry x="735" y="425" width="350" height="350" as="geometry" />
        </mxCell>
        <mxCell id="HFAiObqD8BVQZH5xXZjD-121" value="" style="verticalLabelPosition=bottom;verticalAlign=top;html=1;shape=mxgraph.basic.partConcEllipse;startAngle=0.7404621378820819;endAngle=0.7829438308915222;arcWidth=0.5;fillColor=#dae8fc;gradientColor=#7ea6e0;strokeColor=#6c8ebf;" parent="1" vertex="1">
          <mxGeometry x="735" y="425" width="350" height="350" as="geometry" />
        </mxCell>
        <mxCell id="HFAiObqD8BVQZH5xXZjD-122" value="" style="verticalLabelPosition=bottom;verticalAlign=top;html=1;shape=mxgraph.basic.partConcEllipse;startAngle=0.6964165382800314;endAngle=0.735714542894766;arcWidth=0.5;fillColor=#dae8fc;gradientColor=#7ea6e0;strokeColor=#6c8ebf;" parent="1" vertex="1">
          <mxGeometry x="735" y="425" width="350" height="350" as="geometry" />
        </mxCell>
        <mxCell id="HFAiObqD8BVQZH5xXZjD-123" value="" style="verticalLabelPosition=bottom;verticalAlign=top;html=1;shape=mxgraph.basic.partConcEllipse;startAngle=0.6445715809024097;endAngle=0.6894405292045782;arcWidth=0.5;fillColor=#dae8fc;gradientColor=#7ea6e0;strokeColor=#6c8ebf;" parent="1" vertex="1">
          <mxGeometry x="735" y="425" width="350" height="350" as="geometry" />
        </mxCell>
        <mxCell id="HFAiObqD8BVQZH5xXZjD-124" value="Atmosphere" style="text;html=1;strokeColor=none;fillColor=none;align=center;verticalAlign=middle;whiteSpace=wrap;rounded=0;" parent="1" vertex="1">
          <mxGeometry x="810" y="600" width="60" height="30" as="geometry" />
        </mxCell>
        <mxCell id="HFAiObqD8BVQZH5xXZjD-125" value="Infrastructure" style="text;html=1;strokeColor=none;fillColor=none;align=center;verticalAlign=middle;whiteSpace=wrap;rounded=0;" parent="1" vertex="1">
          <mxGeometry x="765" y="515" width="60" height="30" as="geometry" />
        </mxCell>
        <mxCell id="HFAiObqD8BVQZH5xXZjD-127" value="Vegetation " style="text;html=1;strokeColor=none;fillColor=none;align=center;verticalAlign=middle;whiteSpace=wrap;rounded=0;" parent="1" vertex="1">
          <mxGeometry x="890" y="450" width="60" height="30" as="geometry" />
        </mxCell>
        <mxCell id="HFAiObqD8BVQZH5xXZjD-128" value="Sky" style="text;html=1;strokeColor=none;fillColor=none;align=center;verticalAlign=middle;whiteSpace=wrap;rounded=0;" parent="1" vertex="1">
          <mxGeometry x="735" y="620" width="60" height="30" as="geometry" />
        </mxCell>
        <mxCell id="HFAiObqD8BVQZH5xXZjD-129" value="Clouds" style="text;html=1;strokeColor=none;fillColor=none;align=center;verticalAlign=middle;whiteSpace=wrap;rounded=0;" parent="1" vertex="1">
          <mxGeometry x="745" y="570" width="60" height="30" as="geometry" />
        </mxCell>
        <mxCell id="HFAiObqD8BVQZH5xXZjD-130" value="Celestial Bodies" style="text;html=1;strokeColor=none;fillColor=none;align=center;verticalAlign=middle;whiteSpace=wrap;rounded=0;" parent="1" vertex="1">
          <mxGeometry x="765" y="650" width="60" height="30" as="geometry" />
        </mxCell>
        <mxCell id="HFAiObqD8BVQZH5xXZjD-131" value="Human" style="text;html=1;strokeColor=none;fillColor=none;align=center;verticalAlign=middle;whiteSpace=wrap;rounded=0;" parent="1" vertex="1">
          <mxGeometry x="955" y="470" width="60" height="30" as="geometry" />
        </mxCell>
        <mxCell id="HFAiObqD8BVQZH5xXZjD-132" value="Animal" style="text;html=1;strokeColor=none;fillColor=none;align=center;verticalAlign=middle;whiteSpace=wrap;rounded=0;" parent="1" vertex="1">
          <mxGeometry x="1005" y="560" width="60" height="30" as="geometry" />
        </mxCell>
        <mxCell id="HFAiObqD8BVQZH5xXZjD-133" value="Vehicle" style="text;html=1;strokeColor=none;fillColor=none;align=center;verticalAlign=middle;whiteSpace=wrap;rounded=0;" parent="1" vertex="1">
          <mxGeometry x="995" y="510" width="60" height="30" as="geometry" />
        </mxCell>
        <mxCell id="HFAiObqD8BVQZH5xXZjD-134" value="" style="verticalLabelPosition=bottom;verticalAlign=top;html=1;shape=mxgraph.basic.partConcEllipse;startAngle=0.4950792507221276;endAngle=0.5537342479781142;arcWidth=0.5;fillColor=#fff2cc;gradientColor=#ffd966;strokeColor=#d6b656;" parent="1" vertex="1">
          <mxGeometry x="735" y="425" width="350" height="350" as="geometry" />
        </mxCell>
        <mxCell id="HFAiObqD8BVQZH5xXZjD-135" value="" style="verticalLabelPosition=bottom;verticalAlign=top;html=1;shape=mxgraph.basic.partConcEllipse;startAngle=0.39693268081748273;endAngle=0.48703650452378056;arcWidth=0.5;fillColor=#fff2cc;gradientColor=#ffd966;strokeColor=#d6b656;" parent="1" vertex="1">
          <mxGeometry x="735" y="425" width="350" height="350" as="geometry" />
        </mxCell>
        <mxCell id="HFAiObqD8BVQZH5xXZjD-136" value="Material" style="text;html=1;strokeColor=none;fillColor=none;align=center;verticalAlign=middle;whiteSpace=wrap;rounded=0;" parent="1" vertex="1">
          <mxGeometry x="925" y="720" width="60" height="30" as="geometry" />
        </mxCell>
        <mxCell id="HFAiObqD8BVQZH5xXZjD-137" value="Shape" style="text;html=1;strokeColor=none;fillColor=none;align=center;verticalAlign=middle;whiteSpace=wrap;rounded=0;" parent="1" vertex="1">
          <mxGeometry x="855" y="730" width="60" height="30" as="geometry" />
        </mxCell>
        <mxCell id="HFAiObqD8BVQZH5xXZjD-139" value="" style="verticalLabelPosition=bottom;verticalAlign=top;html=1;shape=mxgraph.basic.partConcEllipse;startAngle=0.16757477191089495;endAngle=0.184920297753485;arcWidth=0.4;fillColor=#f8cecc;gradientColor=#ea6b66;strokeColor=#b85450;" parent="1" vertex="1">
          <mxGeometry x="610" y="300" width="600" height="600" as="geometry" />
        </mxCell>
        <mxCell id="HFAiObqD8BVQZH5xXZjD-140" value="" style="verticalLabelPosition=bottom;verticalAlign=top;html=1;shape=mxgraph.basic.partConcEllipse;startAngle=0.13201699142116544;endAngle=0.14858039966806866;arcWidth=0.4;fillColor=#f8cecc;gradientColor=#ea6b66;strokeColor=#b85450;" parent="1" vertex="1">
          <mxGeometry x="610" y="300" width="600" height="600" as="geometry" />
        </mxCell>
        <mxCell id="HFAiObqD8BVQZH5xXZjD-141" value="" style="verticalLabelPosition=bottom;verticalAlign=top;html=1;shape=mxgraph.basic.partConcEllipse;startAngle=0.1505245446593299;endAngle=0.16537348633483367;arcWidth=0.4;fillColor=#f8cecc;gradientColor=#ea6b66;strokeColor=#b85450;" parent="1" vertex="1">
          <mxGeometry x="610" y="300" width="600" height="600" as="geometry" />
        </mxCell>
        <mxCell id="HFAiObqD8BVQZH5xXZjD-143" value="" style="verticalLabelPosition=bottom;verticalAlign=top;html=1;shape=mxgraph.basic.partConcEllipse;startAngle=0.9129178309298805;endAngle=0.9388575466724463;arcWidth=0.4;fillColor=#d5e8d4;gradientColor=#97d077;strokeColor=#82b366;" parent="1" vertex="1">
          <mxGeometry x="610" y="300" width="600" height="600" as="geometry" />
        </mxCell>
        <mxCell id="HFAiObqD8BVQZH5xXZjD-144" value="GV" style="text;html=1;strokeColor=none;fillColor=none;align=center;verticalAlign=middle;whiteSpace=wrap;rounded=0;" parent="1" vertex="1">
          <mxGeometry x="1065" y="430" width="60" height="30" as="geometry" />
        </mxCell>
        <mxCell id="HFAiObqD8BVQZH5xXZjD-145" value="AV" style="text;html=1;strokeColor=none;fillColor=none;align=center;verticalAlign=middle;whiteSpace=wrap;rounded=0;" parent="1" vertex="1">
          <mxGeometry x="1075" y="460" width="60" height="30" as="geometry" />
        </mxCell>
        <mxCell id="HFAiObqD8BVQZH5xXZjD-146" value="WV" style="text;html=1;strokeColor=none;fillColor=none;align=center;verticalAlign=middle;whiteSpace=wrap;rounded=0;" parent="1" vertex="1">
          <mxGeometry x="1105" y="480" width="60" height="30" as="geometry" />
        </mxCell>
        <mxCell id="HFAiObqD8BVQZH5xXZjD-147" value="" style="verticalLabelPosition=bottom;verticalAlign=top;html=1;shape=mxgraph.basic.partConcEllipse;startAngle=0.009537862117918117;endAngle=0.043583313691899654;arcWidth=0.4;fillColor=#d5e8d4;gradientColor=#97d077;strokeColor=#82b366;" parent="1" vertex="1">
          <mxGeometry x="610" y="300" width="600" height="600" as="geometry" />
        </mxCell>
        <mxCell id="HFAiObqD8BVQZH5xXZjD-149" value="Flat" style="text;html=1;strokeColor=none;fillColor=none;align=center;verticalAlign=middle;whiteSpace=wrap;rounded=0;" parent="1" vertex="1">
          <mxGeometry x="755" y="350" width="60" height="30" as="geometry" />
        </mxCell>
        <mxCell id="HFAiObqD8BVQZH5xXZjD-150" value="&lt;div&gt;Fluctuating&lt;/div&gt;&lt;div&gt;Elevation&lt;br&gt;&lt;/div&gt;" style="text;html=1;strokeColor=none;fillColor=none;align=center;verticalAlign=middle;whiteSpace=wrap;rounded=0;" parent="1" vertex="1">
          <mxGeometry x="810" y="335" width="60" height="30" as="geometry" />
        </mxCell>
        <mxCell id="HFAiObqD8BVQZH5xXZjD-151" value="" style="verticalLabelPosition=bottom;verticalAlign=top;html=1;shape=mxgraph.basic.partConcEllipse;startAngle=0.7933872003853077;endAngle=0.814646955733561;arcWidth=0.4;fillColor=#d5e8d4;gradientColor=#97d077;strokeColor=#82b366;" parent="1" vertex="1">
          <mxGeometry x="610" y="300" width="600" height="600" as="geometry" />
        </mxCell>
        <mxCell id="HFAiObqD8BVQZH5xXZjD-152" value="Regulatory" style="text;html=1;strokeColor=none;fillColor=none;align=center;verticalAlign=middle;whiteSpace=wrap;rounded=0;" parent="1" vertex="1">
          <mxGeometry x="635" y="500" width="60" height="30" as="geometry" />
        </mxCell>
        <mxCell id="HFAiObqD8BVQZH5xXZjD-153" value="" style="verticalLabelPosition=bottom;verticalAlign=top;html=1;shape=mxgraph.basic.partConcEllipse;startAngle=0.8167229077701802;endAngle=0.8335951152123473;arcWidth=0.4;fillColor=#d5e8d4;gradientColor=#97d077;strokeColor=#82b366;" parent="1" vertex="1">
          <mxGeometry x="610" y="300" width="600" height="600" as="geometry" />
        </mxCell>
        <mxCell id="HFAiObqD8BVQZH5xXZjD-154" value="Barrier" style="text;html=1;strokeColor=none;fillColor=none;align=center;verticalAlign=middle;whiteSpace=wrap;rounded=0;" parent="1" vertex="1">
          <mxGeometry x="645" y="470" width="60" height="30" as="geometry" />
        </mxCell>
        <mxCell id="HFAiObqD8BVQZH5xXZjD-155" value="" style="verticalLabelPosition=bottom;verticalAlign=top;html=1;shape=mxgraph.basic.partConcEllipse;startAngle=0.83655362363429;endAngle=0.8539766749400294;arcWidth=0.4;fillColor=#d5e8d4;gradientColor=#97d077;strokeColor=#82b366;" parent="1" vertex="1">
          <mxGeometry x="610" y="300" width="600" height="600" as="geometry" />
        </mxCell>
        <mxCell id="HFAiObqD8BVQZH5xXZjD-156" value="Building" style="text;html=1;strokeColor=none;fillColor=none;align=center;verticalAlign=middle;whiteSpace=wrap;rounded=0;" parent="1" vertex="1">
          <mxGeometry x="665" y="440" width="60" height="30" as="geometry" />
        </mxCell>
        <mxCell id="HFAiObqD8BVQZH5xXZjD-157" value="" style="verticalLabelPosition=bottom;verticalAlign=top;html=1;shape=mxgraph.basic.partConcEllipse;startAngle=0.878758866538277;endAngle=0.8986352869896397;arcWidth=0.4;fillColor=#d5e8d4;gradientColor=#97d077;strokeColor=#82b366;" parent="1" vertex="1">
          <mxGeometry x="610" y="300" width="600" height="600" as="geometry" />
        </mxCell>
        <mxCell id="HFAiObqD8BVQZH5xXZjD-158" value="" style="verticalLabelPosition=bottom;verticalAlign=top;html=1;shape=mxgraph.basic.partConcEllipse;startAngle=0.8583662545117346;endAngle=0.8761449798372287;arcWidth=0.4;fillColor=#d5e8d4;gradientColor=#97d077;strokeColor=#82b366;" parent="1" vertex="1">
          <mxGeometry x="610" y="300" width="600" height="600" as="geometry" />
        </mxCell>
        <mxCell id="HFAiObqD8BVQZH5xXZjD-159" value="Tunnel" style="text;html=1;strokeColor=none;fillColor=none;align=center;verticalAlign=middle;whiteSpace=wrap;rounded=0;" parent="1" vertex="1">
          <mxGeometry x="685" y="410" width="60" height="30" as="geometry" />
        </mxCell>
        <mxCell id="HFAiObqD8BVQZH5xXZjD-160" value="Bridge" style="text;html=1;strokeColor=none;fillColor=none;align=center;verticalAlign=middle;whiteSpace=wrap;rounded=0;" parent="1" vertex="1">
          <mxGeometry x="715" y="395" width="60" height="30" as="geometry" />
        </mxCell>
        <mxCell id="HFAiObqD8BVQZH5xXZjD-161" value="" style="verticalLabelPosition=bottom;verticalAlign=top;html=1;shape=mxgraph.basic.partConcEllipse;startAngle=0.3960233250599707;endAngle=0.4109239122131654;arcWidth=0.4;fillColor=#fff2cc;gradientColor=#ffd966;strokeColor=#d6b656;" parent="1" vertex="1">
          <mxGeometry x="610" y="300" width="600" height="600" as="geometry" />
        </mxCell>
        <mxCell id="HFAiObqD8BVQZH5xXZjD-162" value="" style="verticalLabelPosition=bottom;verticalAlign=top;html=1;shape=mxgraph.basic.partConcEllipse;startAngle=0.4137078753180593;endAngle=0.4269416189005031;arcWidth=0.4;fillColor=#fff2cc;gradientColor=#ffd966;strokeColor=#d6b656;" parent="1" vertex="1">
          <mxGeometry x="610" y="300" width="600" height="600" as="geometry" />
        </mxCell>
        <mxCell id="HFAiObqD8BVQZH5xXZjD-163" value="" style="verticalLabelPosition=bottom;verticalAlign=top;html=1;shape=mxgraph.basic.partConcEllipse;startAngle=0.4291281377012938;endAngle=0.4415624693738283;arcWidth=0.4;fillColor=#fff2cc;gradientColor=#ffd966;strokeColor=#d6b656;" parent="1" vertex="1">
          <mxGeometry x="610" y="300" width="600" height="600" as="geometry" />
        </mxCell>
        <mxCell id="HFAiObqD8BVQZH5xXZjD-164" value="Plants" style="text;html=1;strokeColor=none;fillColor=none;align=center;verticalAlign=middle;whiteSpace=wrap;rounded=0;" parent="1" vertex="1">
          <mxGeometry x="1045" y="810" width="60" height="30" as="geometry" />
        </mxCell>
        <mxCell id="HFAiObqD8BVQZH5xXZjD-165" value="Soil" style="text;html=1;strokeColor=none;fillColor=none;align=center;verticalAlign=middle;whiteSpace=wrap;rounded=0;" parent="1" vertex="1">
          <mxGeometry x="1015" y="830" width="60" height="30" as="geometry" />
        </mxCell>
        <mxCell id="HFAiObqD8BVQZH5xXZjD-166" value="Mineral" style="text;html=1;strokeColor=none;fillColor=none;align=center;verticalAlign=middle;whiteSpace=wrap;rounded=0;" parent="1" vertex="1">
          <mxGeometry x="985" y="820" width="60" height="30" as="geometry" />
        </mxCell>
        <mxCell id="HFAiObqD8BVQZH5xXZjD-167" value="Man-Made" style="text;html=1;strokeColor=none;fillColor=none;align=center;verticalAlign=middle;whiteSpace=wrap;rounded=0;" parent="1" vertex="1">
          <mxGeometry x="915" y="830" width="60" height="30" as="geometry" />
        </mxCell>
        <mxCell id="HFAiObqD8BVQZH5xXZjD-168" value="Liquid" style="text;html=1;strokeColor=none;fillColor=none;align=center;verticalAlign=middle;whiteSpace=wrap;rounded=0;" parent="1" vertex="1">
          <mxGeometry x="955" y="850" width="60" height="30" as="geometry" />
        </mxCell>
        <mxCell id="6_lWr3xNK84Tyih0ua0p-2" value="Landform" style="text;html=1;strokeColor=none;fillColor=none;align=center;verticalAlign=middle;whiteSpace=wrap;rounded=0;" vertex="1" parent="1">
          <mxGeometry x="835" y="470" width="60" height="30" as="geometry" />
        </mxCell>
        <mxCell id="6_lWr3xNK84Tyih0ua0p-4" value="" style="verticalLabelPosition=bottom;verticalAlign=top;html=1;shape=mxgraph.basic.partConcEllipse;startAngle=0.9774163823495667;endAngle=0.004773216671265159;arcWidth=0.4;fillColor=#d5e8d4;gradientColor=#97d077;strokeColor=#82b366;" vertex="1" parent="1">
          <mxGeometry x="610" y="300" width="600" height="600" as="geometry" />
        </mxCell>
        <mxCell id="6_lWr3xNK84Tyih0ua0p-5" value="Ground Cover" style="text;html=1;strokeColor=none;fillColor=none;align=center;verticalAlign=middle;whiteSpace=wrap;rounded=0;" vertex="1" parent="1">
          <mxGeometry x="865" y="320" width="60" height="30" as="geometry" />
        </mxCell>
        <mxCell id="6_lWr3xNK84Tyih0ua0p-6" value="&lt;div&gt;Bush &lt;br&gt;&lt;/div&gt;&lt;div&gt;&amp;amp; Tree&lt;/div&gt;" style="text;html=1;strokeColor=none;fillColor=none;align=center;verticalAlign=middle;whiteSpace=wrap;rounded=0;" vertex="1" parent="1">
          <mxGeometry x="925" y="335" width="60" height="30" as="geometry" />
        </mxCell>
        <mxCell id="6_lWr3xNK84Tyih0ua0p-8" value="Traversability" style="text;html=1;strokeColor=none;fillColor=none;align=center;verticalAlign=middle;whiteSpace=wrap;rounded=0;" vertex="1" parent="1">
          <mxGeometry x="795" y="700" width="60" height="30" as="geometry" />
        </mxCell>
      </root>
    </mxGraphModel>
  </diagram>
</mxfile>
